<?xml version="1.0" encoding="UTF-8"?>
<svg id="Camada_1" xmlns="http://www.w3.org/2000/svg" viewBox="0 0 602.85 147.8">
  <defs>
    <style>
      .cls-1 {
        isolation: isolate;
      }

      .cls-2 {
        fill: #a979fe;
      }

      .cls-3 {
        fill: none;
        stroke: #a979fe;
        stroke-linecap: round;
        stroke-width: 16px;
      }
    </style>
  </defs>
  <g>
    <path class="cls-3" d="M438.48,55.12c-8.03-8.57-19.01-13.39-30.25-13.39s-22.22,4.82-30.25,13.39"/>
    <path class="cls-3" d="M448.65,24.87c-10.71-10.71-25.17-16.87-40.42-16.87s-29.72,6.16-40.42,16.87"/>
  </g>
  <g class="cls-1">
    <g class="cls-1">
      <path class="cls-2" d="M56.52,57.44c-4.19,0-7.77-1.47-10.75-4.41-2.98-2.94-4.47-6.48-4.47-10.63s1.49-7.77,4.47-10.75,6.56-4.47,10.75-4.47c2.5,0,4.83.57,7,1.7,2.17,1.13,3.97,2.66,5.39,4.58l-5.88,4.26c-1.5-2.38-3.67-3.57-6.51-3.57-2.34-.04-4.29.74-5.85,2.33-1.56,1.59-2.33,3.58-2.33,5.96s.78,4.35,2.33,5.91c1.56,1.56,3.51,2.33,5.85,2.33,1.38.04,2.66-.27,3.83-.92,1.17-.65,2.08-1.56,2.74-2.71l5.76,4.26c-1.42,1.88-3.21,3.37-5.36,4.47-2.15,1.09-4.48,1.64-6.97,1.64Z"/>
      <path class="cls-2" d="M84.64,57.15c-3.8,0-6.99-1.41-9.57-4.24-2.57-2.82-3.86-6.31-3.86-10.46s1.28-7.69,3.83-10.52c2.55-2.82,5.75-4.24,9.6-4.24,4.19,0,7.47,1.42,9.85,4.26v-3.8h7.2v28.53h-7.2v-3.75c-2.42,2.81-5.71,4.21-9.85,4.21ZM80.69,48.44c1.56,1.61,3.47,2.42,5.73,2.42s4.18-.81,5.73-2.42c1.56-1.61,2.33-3.61,2.33-5.99s-.78-4.44-2.33-6.05-3.47-2.42-5.73-2.42-4.18.81-5.73,2.42-2.33,3.63-2.33,6.05.78,4.38,2.33,5.99Z"/>
      <path class="cls-2" d="M107.93,56.69v-28.53h7.2v3.52c2.34-2.65,5.32-3.98,8.93-3.98,4.03,0,7.22,1.69,9.57,5.07,2.61-3.38,6.15-5.07,10.6-5.07,3.69,0,6.64,1.23,8.85,3.69,2.21,2.46,3.31,5.97,3.31,10.55v14.75h-7.2v-14.18c0-2.88-.6-5.05-1.79-6.51-1.19-1.46-2.79-2.19-4.78-2.19-2.11,0-3.77.77-4.99,2.31-1.21,1.54-1.81,3.67-1.81,6.4v14.18h-7.2v-14.18c0-2.84-.62-5-1.84-6.48-1.23-1.48-2.81-2.22-4.73-2.22-2.07,0-3.75.8-5.01,2.39-1.27,1.59-1.9,3.79-1.9,6.6v13.89h-7.2Z"/>
      <path class="cls-2" d="M162.1,71.09V28.16h7.2v3.86c2.5-2.88,5.78-4.32,9.86-4.32,3.84,0,7.04,1.41,9.6,4.24,2.55,2.82,3.83,6.33,3.83,10.52s-1.28,7.64-3.83,10.46c-2.56,2.82-5.75,4.24-9.6,4.24s-7.28-1.42-9.86-4.26v18.21h-7.2ZM171.64,48.44c1.56,1.61,3.47,2.42,5.73,2.42s4.17-.81,5.71-2.42c1.54-1.61,2.31-3.61,2.31-5.99s-.77-4.44-2.31-6.05c-1.54-1.61-3.44-2.42-5.71-2.42s-4.18.81-5.73,2.42-2.33,3.63-2.33,6.05.78,4.38,2.33,5.99Z"/>
      <path class="cls-2" d="M209.18,57.03c-3.77,0-6.78-1.23-9.05-3.69-2.27-2.46-3.4-5.94-3.4-10.43v-14.75h7.2v14.06c0,2.81.62,4.95,1.87,6.43,1.25,1.48,2.89,2.22,4.93,2.22,2.15,0,3.87-.78,5.16-2.33,1.29-1.56,1.93-3.72,1.93-6.48v-13.89h7.2v28.53h-7.15v-3.52h-.12c-2.19,2.57-5.05,3.86-8.59,3.86Z"/>
      <path class="cls-2" d="M242.09,57.72c-3,0-5.69-.71-8.07-2.13-2.38-1.42-4.02-3.38-4.9-5.88l6.22-1.96c1.19,2.81,3.48,4.21,6.86,4.21,1.73,0,3.09-.35,4.09-1.07,1-.71,1.5-1.68,1.5-2.91,0-1.15-.63-1.92-1.9-2.31-1.27-.38-3.05-.67-5.33-.86-2.29-.19-4.1-.56-5.45-1.1-3.27-1.38-4.9-3.75-4.9-7.09,0-2.57,1.11-4.75,3.34-6.54,2.23-1.79,4.96-2.68,8.18-2.68,3.03,0,5.57.71,7.61,2.13,2.04,1.42,3.38,3.3,4.03,5.65l-6.11,1.67c-.35-1.23-.98-2.22-1.9-2.97-.92-.75-2.11-1.12-3.57-1.12s-2.6.37-3.54,1.1c-.94.73-1.41,1.59-1.41,2.59,0,1.27.7,2.13,2.1,2.59,1.4.46,3.29.8,5.65,1.01,2.36.21,4.14.59,5.33,1.12,3.23,1.35,4.84,3.63,4.84,6.86,0,2.92-1.18,5.26-3.54,7.03-2.36,1.77-5.41,2.65-9.13,2.65Z"/>
    </g>
  </g>
  <g class="cls-1">
    <g class="cls-1">
      <path class="cls-2" d="M42.83,147.8c-11.72,0-21.79-4.08-30.21-12.23C4.21,127.42,0,117.54,0,105.93s4.21-21.58,12.63-29.89c8.42-8.31,18.48-12.47,30.21-12.47,6.92,0,13.45,1.57,19.58,4.71,6.13,3.14,11.16,7.38,15.1,12.71l-20.3,14.86c-3.2-5.22-7.99-7.94-14.38-8.15-5.11-.1-9.38,1.6-12.79,5.11-3.41,3.52-5.11,7.94-5.11,13.27s1.7,9.51,5.11,12.87c3.41,3.36,7.67,5.09,12.79,5.19,2.98.11,5.78-.58,8.39-2.08,2.61-1.49,4.66-3.52,6.15-6.07l19.98,14.7c-3.94,5.33-8.95,9.51-15.02,12.55-6.07,3.04-12.57,4.55-19.5,4.55Z"/>
      <path class="cls-2" d="M155.35,135.57c-8.42,8.15-18.49,12.23-30.21,12.23s-21.79-4.08-30.21-12.23c-8.42-8.15-12.63-18.03-12.63-29.65s4.21-21.58,12.63-29.89c8.42-8.31,18.48-12.47,30.21-12.47s21.79,4.16,30.21,12.47c8.42,8.31,12.63,18.27,12.63,29.89s-4.21,21.5-12.63,29.65ZM125.14,124.31c4.69.11,8.71-1.6,12.07-5.11,3.36-3.52,5.03-7.88,5.03-13.11s-1.65-9.75-4.95-13.27c-3.3-3.52-7.35-5.22-12.15-5.11-4.79-.1-8.85,1.6-12.15,5.11-3.3,3.52-4.95,7.94-4.95,13.27s1.68,9.59,5.03,13.11,7.38,5.22,12.07,5.11Z"/>
      <path class="cls-2" d="M179.64,145.56v-79.11h25.57v8.95c5.97-6.92,13.58-10.39,22.85-10.39,10.23,0,18.43,3.49,24.61,10.47,6.18,6.98,9.27,16.6,9.27,28.85v41.23h-25.57v-38.84c0-6.39-1.36-11.32-4.08-14.78-2.72-3.46-6.47-5.19-11.27-5.19s-8.77,1.81-11.59,5.43c-2.82,3.62-4.24,8.53-4.24,14.7v38.68h-25.57Z"/>
      <path class="cls-2" d="M275.7,145.56v-79.11h25.57v8.95c5.97-6.92,13.59-10.39,22.86-10.39,10.23,0,18.43,3.49,24.61,10.47,6.18,6.98,9.27,16.6,9.27,28.85v41.23h-25.57v-38.84c0-6.39-1.36-11.32-4.08-14.78-2.72-3.46-6.47-5.19-11.27-5.19s-8.76,1.81-11.59,5.43c-2.82,3.62-4.24,8.53-4.24,14.7v38.68h-25.57Z"/>
      <path class="cls-2" d="M409.47,63.73c11.83,0,21.42,3.76,28.77,11.27,7.35,7.51,11.08,17.88,11.19,31.09,0,2.98-.06,5.33-.16,7.03h-57.86c1.17,4.58,3.38,8.02,6.63,10.31,3.25,2.29,7.06,3.44,11.43,3.44,7.88,0,14.01-2.72,18.38-8.15l15.5,12.95c-3.62,5.01-8.53,8.92-14.7,11.75-6.18,2.82-12.52,4.24-19.02,4.24-11.93,0-21.92-4.02-29.97-12.07-8.05-8.04-12.07-17.87-12.07-29.49s4-22.11,11.99-30.21c7.99-8.1,17.95-12.15,29.89-12.15ZM409.63,83.55c-8.95,0-14.86,4.42-17.74,13.27h34.36c-2.56-8.84-8.1-13.27-16.62-13.27Z"/>
      <path class="cls-2" d="M498.49,147.8c-11.72,0-21.79-4.08-30.21-12.23-8.42-8.15-12.63-18.03-12.63-29.65s4.21-21.58,12.63-29.89c8.42-8.31,18.48-12.47,30.21-12.47,6.92,0,13.45,1.57,19.58,4.71,6.13,3.14,11.16,7.38,15.1,12.71l-20.3,14.86c-3.2-5.22-7.99-7.94-14.38-8.15-5.11-.1-9.38,1.6-12.79,5.11-3.41,3.52-5.11,7.94-5.11,13.27s1.7,9.51,5.11,12.87c3.41,3.36,7.67,5.09,12.79,5.19,2.98.11,5.78-.58,8.39-2.08,2.61-1.49,4.66-3.52,6.15-6.07l19.98,14.7c-3.94,5.33-8.95,9.51-15.02,12.55-6.07,3.04-12.57,4.55-19.5,4.55Z"/>
      <path class="cls-2" d="M586.55,145.88c-9.59,0-17.42-2.77-23.49-8.31-6.07-5.54-9.11-12.79-9.11-21.74v-27.17h-15.98v-22.22h15.98v-23.01h25.25v23.01h21.9v22.22h-21.9v21.42c0,8.31,4.42,12.47,13.27,12.47,2.66,0,5.27-.42,7.83-1.28l2.56,21.9c-5.43,1.81-10.87,2.72-16.3,2.72Z"/>
    </g>
  </g>
</svg>